<?xml version="1.0" encoding="UTF-8"?>
<svg id="Layer_1" data-name="Layer 1" xmlns="http://www.w3.org/2000/svg" xmlns:xlink="http://www.w3.org/1999/xlink" viewBox="0 0 1107 623">
  <defs>
    <style>
      .cls-1 {
        fill: none;
      }

      .cls-2 {
        fill: #46515b;
      }

      .cls-3 {
        fill: url(#platform);
      }

      .cls-4 {
        fill: #00dd68;
      }

      .cls-5 {
        fill: #353d45;
      }

      .cls-6 {
        fill: #4ebc91;
      }

      .cls-7 {
        fill: #373f47;
      }

      .cls-8 {
        fill: #4b5762;
      }

      .cls-9 {
        fill: #009e60;
      }

      .cls-10 {
        fill: #30383f;
      }

      .cls-11 {
        fill: #fc0080;
      }

      .cls-12 {
        fill: #4c5863;
      }

      .cls-13 {
        fill: url(#linear-gradient);
      }

      .cls-14 {
        fill: #4b5661;
      }

      .cls-15 {
        fill: #3cb585;
      }

      .cls-16 {
        fill: #2a3036;
      }

      .cls-17 {
        isolation: isolate;
      }

      .cls-18 {
        fill: #3a434c;
      }

      .cls-19 {
        clip-path: url(#clippath-11);
      }

      .cls-20 {
        clip-path: url(#clippath-10);
      }

      .cls-21 {
        fill: #384149;
      }

      .cls-22 {
        fill: #36b382;
      }

      .cls-23 {
        fill: #4e5a66;
      }

      .cls-24 {
        clip-path: url(#clippath-1);
      }

      .cls-25 {
        clip-path: url(#clippath-3);
      }

      .cls-26 {
        clip-path: url(#clippath-4);
      }

      .cls-27 {
        clip-path: url(#clippath-2);
      }

      .cls-28 {
        clip-path: url(#clippath-7);
      }

      .cls-29 {
        clip-path: url(#clippath-6);
      }

      .cls-30 {
        clip-path: url(#clippath-9);
      }

      .cls-31 {
        clip-path: url(#clippath-8);
      }

      .cls-32 {
        clip-path: url(#clippath-5);
      }

      .cls-33 {
        fill: #40b688;
      }

      .cls-34 {
        stroke: #bfbfbf;
        stroke-miterlimit: 10;
        stroke-width: .56px;
      }

      .cls-34, .cls-35 {
        fill: #f1f1f2;
      }

      .cls-36 {
        fill: #49545f;
      }

      .cls-37 {
        fill: #2e363c;
      }

      .cls-38 {
        fill: #444f59;
      }

      .cls-39 {
        fill: #333c43;
      }

      .cls-40 {
        fill: #00fc91;
      }

      .cls-41 {
        opacity: .7;
      }

      .cls-42 {
        opacity: .3;
      }

      .cls-43 {
        fill: #505c68;
      }

      .cls-44 {
        fill: #5dc19a;
      }

      .cls-45 {
        fill: #424d56;
      }

      .cls-46 {
        fill: #47535d;
      }

      .cls-47 {
        fill: #3f4952;
      }

      .cls-48 {
        fill: #60c29c;
      }

      .cls-49 {
        fill: #414b54;
      }

      .cls-50 {
        fill: #151617;
      }

      .cls-51 {
        fill: #ff5400;
      }

      .cls-52 {
        fill: #2b3238;
      }

      .cls-53 {
        fill: #323a41;
      }

      .cls-54 {
        fill: #2d343a;
      }

      .cls-55 {
        fill: #3d4750;
      }

      .cls-56 {
        fill: #3c454e;
      }

      .cls-57 {
        fill: #f09000;
      }

      .cls-58 {
        fill: #ff61f0;
      }

      .cls-59 {
        fill: #23ab76;
      }

      .cls-60 {
        clip-path: url(#clippath);
      }

      .cls-61 {
        fill: #00fd92;
      }

      .cls-62 {
        fill: none;
        stroke: #00fd92;
        stroke-width: 24px;
        stroke-miterlimit: 10;
      }
    </style>
    <linearGradient id="platform" x1="541.73" y1="968.34" x2="541.73" y2="235.63" gradientUnits="userSpaceOnUse">
      <stop offset=".59" stop-color="#2e363c"/>
      <stop offset="1" stop-color="#a0a8ae"/>
    </linearGradient>
    <linearGradient id="linear-gradient" x1="540.48" y1="428.09" x2="546.08" y2="210.44" gradientUnits="userSpaceOnUse">
      <stop offset=".51" stop-color="#18252c"/>
      <stop offset="1" stop-color="#858585"/>
    </linearGradient>
    <clipPath id="clippath">
      <path class="cls-1" d="M635.49,148.62l-.05,18.49c0,2.12-1.4,4.25-4.19,5.86l.05-18.49c2.79-1.62,4.18-3.74,4.19-5.86Z"/>
    </clipPath>
    <clipPath id="clippath-1">
      <path class="cls-1" d="M454.75,167.03l.05-18.49c0,2.15,1.41,4.31,4.25,5.95l-.05,18.49c-2.84-1.64-4.26-3.8-4.25-5.95Z"/>
    </clipPath>
    <clipPath id="clippath-2">
      <path class="cls-1" d="M555.62,198.47l-.05,18.49c-5.61,3.26-14.75,3.26-20.39,0l.05-18.49c5.65,3.26,14.78,3.26,20.39,0Z"/>
    </clipPath>
    <clipPath id="clippath-3">
      <path class="cls-1" d="M527.87,208.62l-.05,18.49c0,2.12-1.4,4.25-4.19,5.86l.05-18.49c2.79-1.62,4.18-3.74,4.19-5.86Z"/>
    </clipPath>
    <clipPath id="clippath-4">
      <path class="cls-1" d="M347.13,227.02l.05-18.49c0,2.15,1.41,4.31,4.25,5.95l-.05,18.49c-2.84-1.64-4.26-3.8-4.25-5.95Z"/>
    </clipPath>
    <clipPath id="clippath-5">
      <path class="cls-1" d="M448.01,258.46l-.05,18.49c-5.61,3.26-14.75,3.26-20.39,0l.05-18.49c5.65,3.26,14.78,3.26,20.39,0Z"/>
    </clipPath>
    <clipPath id="clippath-6">
      <path class="cls-1" d="M741.84,208.62l-.05,18.49c0,2.12-1.4,4.25-4.19,5.86l.05-18.49c2.79-1.62,4.18-3.74,4.19-5.86Z"/>
    </clipPath>
    <clipPath id="clippath-7">
      <path class="cls-1" d="M561.1,227.02l.05-18.49c0,2.15,1.41,4.31,4.25,5.95l-.05,18.49c-2.84-1.64-4.26-3.8-4.25-5.95Z"/>
    </clipPath>
    <clipPath id="clippath-8">
      <path class="cls-1" d="M661.97,258.46l-.05,18.49c-5.61,3.26-14.75,3.26-20.39,0l.05-18.49c5.65,3.26,14.78,3.26,20.39,0Z"/>
    </clipPath>
    <clipPath id="clippath-9">
      <path class="cls-1" d="M635.49,270.05l-.05,18.49c0,2.12-1.4,4.25-4.19,5.86l.05-18.49c2.79-1.62,4.18-3.74,4.19-5.86Z"/>
    </clipPath>
    <clipPath id="clippath-10">
      <path class="cls-1" d="M454.75,288.45l.05-18.49c0,2.15,1.41,4.31,4.25,5.95l-.05,18.49c-2.84-1.64-4.26-3.8-4.25-5.95Z"/>
    </clipPath>
    <clipPath id="clippath-11">
      <path class="cls-1" d="M555.62,319.89l-.05,18.49c-5.61,3.26-14.75,3.26-20.39,0l.05-18.49c5.65,3.26,14.78,3.26,20.39,0Z"/>
    </clipPath>
  </defs>
  <g>
    <path class="cls-34" d="M518.5,169.06l-317.12,183.09c-22.55,13.02-22.55,45.57,0,58.6l317.12,183.09c12.94,7.47,28.89,7.47,41.83,0l317.12-183.09c22.55-13.02,22.55-45.57,0-58.6l-317.12-183.09c-12.94-7.47-28.89-7.47-41.83,0Z"/>
    <path class="cls-4" d="M522.86,211.73l-251.01,144.92c-17.85,10.31-17.85,36.07,0,46.38l251.01,144.92c10.24,5.91,22.86,5.91,33.11,0l251.01-144.92c17.85-10.31,17.85-36.07,0-46.38l-251.01-144.92c-10.24-5.91-22.86-5.91-33.11,0Z"/>
    <path class="cls-3" d="M526.32,223.8l-245.73,141.87c-11.27,6.51-11.27,22.78,0,29.29l245.73,141.87c9.54,5.51,21.29,5.51,30.82,0l245.73-141.87c11.27-6.51,11.27-22.78,0-29.29l-245.73-141.87c-9.54-5.51-21.29-5.51-30.82,0Z"/>
    <path class="cls-13" d="M280.59,384.54l245.73-141.87c9.54-5.51,21.29-5.51,30.82,0l245.73,141.87c2.2,1.27,3.97,2.92,5.31,4.79,5.53-7.71,3.76-19.26-5.31-24.5l-245.73-141.87c-9.54-5.51-21.29-5.51-30.82,0l-245.73,141.87c-9.07,5.24-10.84,16.79-5.31,24.5,1.34-1.87,3.11-3.52,5.31-4.79Z"/>
  </g>
  <g class="cls-41">
    <polygon class="cls-61" points="519.52 294.77 445.99 336.79 464.59 347.54 537.51 305.44 519.52 294.77"/>
    <polygon class="cls-61" points="501.29 284.37 499.03 285.62 505.89 289.58 507.93 288.31 501.29 284.37"/>
    <polygon class="cls-61" points="487.11 292.61 484.85 293.86 491.71 297.82 493.75 296.55 487.11 292.61"/>
    <polygon class="cls-61" points="472.93 300.86 470.67 302.1 477.53 306.06 479.57 304.79 472.93 300.86"/>
    <polygon class="cls-61" points="458.76 309.1 456.49 310.34 463.35 314.3 465.39 313.03 458.76 309.1"/>
    <polygon class="cls-61" points="444.58 317.34 442.31 318.58 449.17 322.54 451.21 321.27 444.58 317.34"/>
    <polygon class="cls-61" points="430.4 325.58 428.13 326.82 434.99 330.78 437.03 329.51 430.4 325.58"/>
    <polygon class="cls-61" points="521.23 328.98 476.63 353.66 495.24 364.4 539.22 339.64 521.23 328.98"/>
    <polygon class="cls-61" points="566.6 336.79 507.28 370.53 525.88 381.27 584.59 347.46 566.6 336.79"/>
    <polygon class="cls-61" points="626.27 336.79 537.92 387.39 556.53 398.13 644.26 347.46 626.27 336.79"/>
    <polygon class="cls-61" points="647.67 393.41 599.21 421.12 617.82 431.87 665.67 404.07 647.67 393.41"/>
    <polygon class="cls-61" points="703.08 396 629.86 437.99 648.47 448.73 721.07 406.66 703.08 396"/>
    <polygon class="cls-61" points="638.68 364.4 568.57 404.26 587.18 415 656.67 375.06 638.68 364.4"/>
    <polygon class="cls-61" points="427.94 347.54 574.16 431.95 571.94 433.17 425.49 349.06 427.94 347.54"/>
    <polygon class="cls-61" points="418.38 353.18 564.6 437.6 562.38 438.81 415.83 354.64 418.38 353.18"/>
    <polygon class="cls-61" points="408.82 358.83 475.46 397.53 473.24 398.74 406.28 360.32 408.82 358.83"/>
  </g>
  <g class="cls-42">
    <path class="cls-50" d="M371.63,424.12c-4.75,0-9.38-.52-13.77-1.54-4.62-1.08-8.78-2.67-12.37-4.74h0c-3.75-2.17-6.69-4.75-8.73-7.67-2.09-3-3.2-6.35-3.2-9.69s1.11-6.69,3.2-9.69c2.05-2.93,4.98-5.51,8.73-7.67,3.58-2.07,7.75-3.66,12.37-4.74,4.39-1.02,9.02-1.54,13.77-1.54s9.38.52,13.77,1.54c4.62,1.08,8.78,2.67,12.37,4.74,3.75,2.17,6.69,4.75,8.73,7.67,2.09,3,3.2,6.35,3.2,9.69s-1.11,6.69-3.2,9.69c-2.05,2.93-4.98,5.51-8.73,7.67-3.58,2.07-7.75,3.66-12.37,4.74-4.39,1.02-9.02,1.54-13.77,1.54ZM349.42,411.04c2.91,1.68,6.35,2.99,10.22,3.89,3.81.89,7.84,1.34,11.99,1.34s8.18-.45,11.99-1.34c3.87-.9,7.31-2.21,10.22-3.89,2.75-1.59,4.84-3.39,6.22-5.37,1.18-1.69,1.78-3.44,1.78-5.19s-.6-3.49-1.78-5.19c-1.38-1.98-3.48-3.78-6.22-5.37-2.91-1.68-6.35-2.99-10.22-3.89-3.81-.89-7.84-1.34-11.99-1.34s-8.18.45-11.99,1.34c-3.87.9-7.31,2.21-10.22,3.89-2.75,1.59-4.84,3.39-6.22,5.37-1.18,1.69-1.78,3.44-1.78,5.19s.6,3.49,1.78,5.19c1.38,1.98,3.48,3.78,6.22,5.37h0Z"/>
  </g>
  <g class="cls-42">
    <path class="cls-50" d="M450.78,470.08c-4.75,0-9.38-.52-13.77-1.54-4.62-1.08-8.78-2.67-12.37-4.74h0c-3.75-2.17-6.69-4.75-8.73-7.67-2.09-3-3.2-6.35-3.2-9.69s1.11-6.69,3.2-9.69c2.05-2.93,4.98-5.51,8.73-7.67,3.58-2.07,7.75-3.66,12.37-4.74,4.39-1.02,9.02-1.54,13.77-1.54s9.38.52,13.77,1.54c4.62,1.08,8.78,2.67,12.37,4.74,3.75,2.17,6.69,4.75,8.73,7.67,2.09,3,3.2,6.35,3.2,9.69s-1.11,6.69-3.2,9.69c-2.05,2.93-4.98,5.51-8.73,7.67-3.58,2.07-7.75,3.66-12.37,4.74-4.39,1.02-9.02,1.54-13.77,1.54ZM428.57,456.99c2.91,1.68,6.35,2.99,10.22,3.89,3.81.89,7.84,1.34,11.99,1.34s8.18-.45,11.99-1.34c3.87-.9,7.31-2.21,10.22-3.89,2.75-1.59,4.84-3.39,6.22-5.37,1.18-1.69,1.78-3.44,1.78-5.19s-.6-3.49-1.78-5.19c-1.38-1.98-3.48-3.78-6.22-5.37-2.91-1.68-6.35-2.99-10.22-3.89-3.81-.89-7.84-1.34-11.99-1.34s-8.18.45-11.99,1.34c-3.87.9-7.31,2.21-10.22,3.89-2.75,1.59-4.84,3.39-6.22,5.37-1.18,1.69-1.78,3.44-1.78,5.19s.6,3.49,1.78,5.19c1.38,1.98,3.48,3.78,6.22,5.37h0Z"/>
  </g>
  <g class="cls-42">
    <path class="cls-50" d="M529.94,516.03c-4.75,0-9.38-.52-13.77-1.54-4.62-1.08-8.78-2.67-12.37-4.74h0c-3.75-2.17-6.69-4.75-8.73-7.67-2.09-3-3.2-6.35-3.2-9.69s1.11-6.69,3.2-9.69c2.05-2.93,4.98-5.51,8.73-7.67,3.58-2.07,7.75-3.66,12.37-4.74,4.39-1.02,9.02-1.54,13.77-1.54s9.38.52,13.77,1.54c4.62,1.08,8.78,2.67,12.37,4.74,3.75,2.17,6.69,4.75,8.73,7.67,2.09,3,3.2,6.35,3.2,9.69s-1.11,6.69-3.2,9.69c-2.05,2.93-4.98,5.51-8.73,7.67-3.58,2.07-7.75,3.66-12.37,4.74-4.39,1.02-9.02,1.54-13.77,1.54ZM507.73,502.94c2.91,1.68,6.35,2.99,10.22,3.89,3.81.89,7.84,1.34,11.99,1.34s8.18-.45,11.99-1.34c3.87-.9,7.31-2.21,10.22-3.89,2.75-1.59,4.84-3.39,6.22-5.37,1.18-1.69,1.78-3.44,1.78-5.19s-.6-3.49-1.78-5.19c-1.38-1.98-3.48-3.78-6.22-5.37-2.91-1.68-6.35-2.99-10.22-3.89-3.81-.89-7.84-1.34-11.99-1.34s-8.18.45-11.99,1.34c-3.87.9-7.31,2.21-10.22,3.89-2.75,1.59-4.84,3.39-6.22,5.37-1.18,1.69-1.78,3.44-1.78,5.19s.6,3.49,1.78,5.19c1.38,1.98,3.48,3.78,6.22,5.37h0Z"/>
  </g>
  <g>
    <path class="cls-33" d="M346.76,380.78l-3.93-6.8c3.58-2.07,7.75-3.66,12.37-4.74,4.39-1.02,9.02-1.54,13.77-1.54v7.86c-4.15,0-8.18.45-11.99,1.34-3.87.9-7.31,2.21-10.22,3.89Z"/>
    <path class="cls-48" d="M391.19,380.78c-2.91-1.68-6.35-2.99-10.22-3.89-3.81-.89-7.84-1.34-11.99-1.34v-7.86c4.75,0,9.38.52,13.77,1.54,4.62,1.08,8.78,2.67,12.37,4.74l-3.93,6.8Z"/>
    <path class="cls-9" d="M368.98,414.98c-4.75,0-9.38-.52-13.77-1.54-4.62-1.08-8.78-2.67-12.37-4.74-3.75-2.17-6.69-4.75-8.73-7.67-2.09-3-3.2-6.35-3.2-9.69s1.11-6.69,3.2-9.69c2.05-2.93,4.98-5.51,8.73-7.67l3.93,6.8c-2.75,1.59-4.84,3.39-6.22,5.37-1.18,1.69-1.78,3.44-1.78,5.19s.6,3.49,1.78,5.19c1.38,1.98,3.48,3.78,6.22,5.37,2.91,1.68,6.35,2.99,10.22,3.89,3.81.89,7.84,1.34,11.99,1.34s8.18-.45,11.99-1.34c3.87-.9,7.31-2.21,10.22-3.89,2.75-1.59,4.84-3.39,6.22-5.37,1.18-1.69,1.78-3.44,1.78-5.19s-.6-3.49-1.78-5.19c-1.38-1.98-3.48-3.78-6.22-5.37l3.93-6.8c3.75,2.17,6.69,4.75,8.73,7.67,2.09,3,3.2,6.35,3.2,9.69s-1.11,6.69-3.2,9.69c-2.05,2.93-4.98,5.51-8.73,7.67-3.58,2.07-7.75,3.66-12.37,4.74-4.39,1.02-9.02,1.54-13.77,1.54Z"/>
  </g>
  <g>
    <path class="cls-22" d="M420.29,432.31l-6.44-4.5c2.05-2.93,4.98-5.51,8.73-7.67,3.58-2.07,7.75-3.66,12.37-4.74,4.39-1.02,9.02-1.54,13.77-1.54s9.38.52,13.77,1.54c4.62,1.08,8.78,2.67,12.37,4.74l-3.93,6.8c-2.91-1.68-6.35-2.99-10.22-3.89-3.81-.89-7.84-1.34-11.99-1.34s-8.18.45-11.99,1.34c-3.87.9-7.31,2.21-10.22,3.89-2.75,1.59-4.84,3.39-6.22,5.37Z"/>
    <path class="cls-44" d="M474.86,454.85l-3.93-6.8c2.75-1.59,4.84-3.39,6.22-5.37,1.18-1.69,1.78-3.44,1.78-5.19s-.6-3.49-1.78-5.19c-1.38-1.98-3.48-3.78-6.22-5.37l3.93-6.8c3.75,2.17,6.69,4.75,8.73,7.67,2.09,3,3.2,6.35,3.2,9.69s-1.11,6.69-3.2,9.69c-2.05,2.93-4.98,5.51-8.73,7.67Z"/>
    <path class="cls-9" d="M448.72,461.14c-4.75,0-9.38-.52-13.77-1.54-4.62-1.08-8.78-2.67-12.37-4.74-3.75-2.17-6.69-4.75-8.73-7.67-2.09-3-3.2-6.35-3.2-9.69s1.11-6.69,3.2-9.69l6.44,4.5c-1.18,1.69-1.78,3.44-1.78,5.19s.6,3.49,1.78,5.19c1.38,1.98,3.48,3.78,6.22,5.37,2.91,1.68,6.35,2.99,10.22,3.89,3.81.89,7.84,1.34,11.99,1.34s8.18-.45,11.99-1.34c3.87-.9,7.31-2.21,10.22-3.89l3.93,6.8c-3.58,2.07-7.75,3.66-12.37,4.74-4.39,1.02-9.02,1.54-13.77,1.54Z"/>
  </g>
  <g>
    <path class="cls-59" d="M516.48,469.2l-1.78-7.65c4.39-1.02,9.02-1.54,13.77-1.54s9.38.52,13.77,1.54l-1.78,7.65c-3.81-.89-7.84-1.34-11.99-1.34s-8.18.45-11.99,1.34Z"/>
    <path class="cls-15" d="M556.9,478.46c-1.38-1.98-3.48-3.78-6.22-5.37-2.91-1.68-6.35-2.99-10.22-3.89l1.78-7.65c4.62,1.08,8.78,2.67,12.37,4.74,3.75,2.17,6.69,4.75,8.73,7.67l-6.44,4.5Z"/>
    <path class="cls-6" d="M542.24,505.75l-1.78-7.65c3.87-.9,7.31-2.21,10.22-3.89,2.75-1.59,4.84-3.39,6.22-5.37,1.18-1.69,1.78-3.44,1.78-5.19s-.6-3.49-1.78-5.19l6.44-4.5c2.09,3,3.2,6.35,3.2,9.69s-1.11,6.69-3.2,9.69c-2.05,2.93-4.98,5.51-8.73,7.67-3.58,2.07-7.75,3.67-12.37,4.74Z"/>
    <path class="cls-9" d="M528.47,507.29c-4.75,0-9.38-.52-13.77-1.54-4.62-1.08-8.78-2.67-12.37-4.74-3.75-2.17-6.69-4.75-8.73-7.67-2.09-3-3.2-6.35-3.2-9.69s1.11-6.69,3.2-9.69c2.05-2.93,4.98-5.51,8.73-7.67,3.58-2.07,7.75-3.66,12.37-4.74l1.78,7.65c-3.87.9-7.31,2.21-10.22,3.89-2.75,1.59-4.84,3.39-6.22,5.37-1.18,1.69-1.78,3.44-1.78,5.19s.6,3.49,1.78,5.19c1.38,1.98,3.48,3.78,6.22,5.37,2.91,1.68,6.35,2.99,10.22,3.89,3.81.89,7.84,1.34,11.99,1.34s8.18-.45,11.99-1.34l1.78,7.65c-4.39,1.02-9.02,1.54-13.77,1.54Z"/>
  </g>
  <g class="ms360-arrow-group" transform="translate(-53, 0)">
    <path class="cls-62" d="M309.85,233.54c0-89.88,126.83-162.74,283.28-162.74s283.28,72.86,283.28,162.74c0,79.76-99.87,146.11-231.68,160.05"/>
    <polygon class="cls-61" points="653.02 356.68 593.13 396.29 657.37 428.35 653.02 356.68"/>
  </g>
  <g>
    <g class="cls-17">
      <g class="cls-17">
        <g class="cls-60">
          <g class="cls-17">
            <path class="cls-52" d="M635.49,148.62l-.05,18.49c0,2.12-1.4,4.25-4.19,5.86l.05-18.49c2.79-1.62,4.18-3.74,4.19-5.86"/>
          </g>
        </g>
      </g>
      <g class="cls-17">
        <g class="cls-24">
          <g class="cls-17">
            <path class="cls-12" d="M459.06,154.49l-.05,18.49s-.02,0-.02-.01l.05-18.49s.02,0,.02.01"/>
            <path class="cls-23" d="M459.03,154.48l-.05,18.49c-.46-.27-.88-.54-1.26-.83l.05-18.49c.38.29.8.57,1.26.83"/>
            <path class="cls-43" d="M457.77,153.64l-.05,18.49c-.88-.66-1.56-1.39-2.05-2.14l.05-18.49c.49.76,1.17,1.48,2.05,2.14"/>
            <path class="cls-23" d="M455.72,151.5l-.05,18.49c-.2-.31-.37-.62-.5-.94l.05-18.49c.13.32.3.63.5.94"/>
            <path class="cls-12" d="M455.22,150.55l-.05,18.49c-.09-.22-.17-.44-.23-.66l.05-18.49c.06.22.14.44.23.66"/>
            <path class="cls-14" d="M454.99,149.9l-.05,18.49c-.05-.18-.09-.36-.12-.55l.05-18.49c.03.18.07.36.12.55"/>
            <path class="cls-36" d="M454.87,149.35l-.05,18.49c-.03-.16-.05-.33-.06-.49l.05-18.49c.01.16.03.33.06.49"/>
            <path class="cls-46" d="M454.81,148.86l-.05,18.49c0-.11,0-.21,0-.32l.05-18.49c0,.11,0,.21,0,.32"/>
          </g>
        </g>
      </g>
      <polygon class="cls-16" points="631.3 154.49 631.25 172.98 555.57 216.96 555.62 198.47 631.3 154.49"/>
      <polygon class="cls-8" points="535.23 198.47 535.18 216.96 459 172.98 459.06 154.49 535.23 198.47"/>
      <path class="cls-35" d="M631.24,142.68c5.65,3.26,5.68,8.55.07,11.81l-75.68,43.98c-5.61,3.26-14.75,3.26-20.39,0l-76.18-43.98c-5.65-3.26-5.68-8.55-.07-11.81l75.68-43.98c5.61-3.26,14.75-3.26,20.39,0l76.18,43.98Z"/>
      <g class="cls-17">
        <g class="cls-27">
          <g class="cls-17">
            <path class="cls-52" d="M555.62,198.47l-.05,18.49c-1.77,1.03-3.89,1.73-6.13,2.11l.05-18.49c2.25-.38,4.37-1.08,6.13-2.11"/>
            <path class="cls-54" d="M549.49,200.58l-.05,18.49c-.42.07-.85.13-1.28.18l.05-18.49c.43-.05.85-.11,1.28-.18"/>
            <path class="cls-37" d="M548.22,200.76l-.05,18.49c-.34.04-.68.07-1.02.09l.05-18.49c.34-.02.68-.06,1.02-.09"/>
            <path class="cls-10" d="M547.19,200.85l-.05,18.49c-.3.02-.6.04-.9.05l.05-18.49c.3-.01.6-.03.9-.05"/>
            <path class="cls-53" d="M546.29,200.9l-.05,18.49c-.27,0-.54.01-.82.01l.05-18.49c.27,0,.54,0,.82-.01"/>
            <path class="cls-39" d="M545.48,200.92l-.05,18.49c-.25,0-.49,0-.74,0l.05-18.49c.25,0,.49.01.74,0"/>
            <path class="cls-5" d="M544.74,200.91l-.05,18.49c-.24,0-.47-.02-.71-.03l.05-18.49c.24.01.47.02.71.03"/>
            <path class="cls-7" d="M544.03,200.88l-.05,18.49c-.22-.01-.45-.03-.67-.05l.05-18.49c.22.02.45.03.67.05"/>
            <path class="cls-21" d="M543.36,200.83l-.05,18.49c-.21-.02-.42-.04-.63-.06l.05-18.49c.21.02.42.04.63.06"/>
            <path class="cls-18" d="M542.73,200.77l-.05,18.49c-.21-.02-.41-.05-.62-.08l.05-18.49c.21.03.41.05.62.08"/>
            <path class="cls-56" d="M542.11,200.69l-.05,18.49c-.19-.03-.39-.06-.58-.09l.05-18.49c.19.03.39.06.58.09"/>
            <path class="cls-55" d="M541.53,200.6l-.05,18.49c-.19-.03-.38-.06-.57-.1l.05-18.49c.19.04.38.07.57.1"/>
            <path class="cls-47" d="M540.95,200.5l-.05,18.49c-.19-.03-.37-.07-.55-.11l.05-18.49c.18.04.37.08.55.11"/>
            <path class="cls-49" d="M540.4,200.39l-.05,18.49c-.18-.04-.37-.08-.55-.13l.05-18.49c.18.04.36.09.55.13"/>
            <path class="cls-45" d="M539.85,200.27l-.05,18.49c-.18-.04-.37-.09-.55-.14l.05-18.49c.18.05.36.1.55.14"/>
            <path class="cls-38" d="M539.31,200.13l-.05,18.49c-.19-.05-.37-.1-.56-.16l.05-18.49c.18.06.37.11.56.16"/>
            <path class="cls-2" d="M538.75,199.97l-.05,18.49c-.19-.06-.38-.12-.57-.18l.05-18.49c.19.06.38.12.57.18"/>
            <path class="cls-46" d="M538.18,199.78l-.05,18.49c-.21-.07-.42-.14-.62-.22l.05-18.49c.2.08.41.15.62.22"/>
            <path class="cls-36" d="M537.56,199.56l-.05,18.49c-.22-.08-.44-.17-.66-.26l.05-18.49c.22.09.44.18.66.26"/>
            <path class="cls-14" d="M536.9,199.3l-.05,18.49c-.26-.11-.51-.23-.76-.35l.05-18.49c.25.12.5.24.76.35"/>
            <path class="cls-12" d="M536.14,198.95l-.05,18.49c-.31-.15-.61-.31-.91-.48l.05-18.49c.29.17.6.33.91.48"/>
          </g>
        </g>
      </g>
    </g>
    <path class="cls-51" d="M583.59,144.05c5.01,2.89,5.04,7.58.06,10.48l-29.36,17.06c-4.98,2.89-13.07,2.89-18.09,0l-29.55-17.06c-5.01-2.89-5.04-7.58-.06-10.48l29.36-17.06c4.98-2.89,13.08-2.89,18.09,0l29.55,17.06Z"/>
  </g>
  <g>
    <g class="cls-17">
      <g class="cls-17">
        <g class="cls-25">
          <g class="cls-17">
            <path class="cls-52" d="M527.87,208.62l-.05,18.49c0,2.12-1.4,4.25-4.19,5.86l.05-18.49c2.79-1.62,4.18-3.74,4.19-5.86"/>
          </g>
        </g>
      </g>
      <g class="cls-17">
        <g class="cls-26">
          <g class="cls-17">
            <path class="cls-12" d="M351.44,214.48l-.05,18.49s-.02,0-.02-.01l.05-18.49s.02,0,.02.01"/>
            <path class="cls-23" d="M351.41,214.47l-.05,18.49c-.46-.27-.88-.54-1.26-.83l.05-18.49c.38.29.8.57,1.26.83"/>
            <path class="cls-43" d="M350.15,213.64l-.05,18.49c-.88-.66-1.56-1.39-2.05-2.14l.05-18.49c.49.76,1.17,1.48,2.05,2.14"/>
            <path class="cls-23" d="M348.1,211.49l-.05,18.49c-.2-.31-.37-.62-.5-.94l.05-18.49c.13.32.3.63.5.94"/>
            <path class="cls-12" d="M347.6,210.55l-.05,18.49c-.09-.22-.17-.44-.23-.66l.05-18.49c.06.22.14.44.23.66"/>
            <path class="cls-14" d="M347.37,209.89l-.05,18.49c-.05-.18-.09-.36-.12-.55l.05-18.49c.03.18.07.36.12.55"/>
            <path class="cls-36" d="M347.25,209.34l-.05,18.49c-.03-.16-.05-.33-.06-.49l.05-18.49c.01.16.03.33.06.49"/>
            <path class="cls-46" d="M347.19,208.85l-.05,18.49c0-.11,0-.21,0-.32l.05-18.49c0,.11,0,.21,0,.32"/>
          </g>
        </g>
      </g>
      <polygon class="cls-16" points="523.69 214.48 523.63 232.97 447.95 276.95 448.01 258.46 523.69 214.48"/>
      <polygon class="cls-8" points="427.61 258.46 427.56 276.95 351.39 232.97 351.44 214.48 427.61 258.46"/>
      <path class="cls-35" d="M523.62,202.67c5.65,3.26,5.68,8.55.07,11.81l-75.68,43.98c-5.61,3.26-14.75,3.26-20.39,0l-76.18-43.98c-5.65-3.26-5.68-8.55-.07-11.81l75.68-43.98c5.61-3.26,14.75-3.26,20.39,0l76.18,43.98Z"/>
      <g class="cls-17">
        <g class="cls-32">
          <g class="cls-17">
            <path class="cls-52" d="M448.01,258.46l-.05,18.49c-1.77,1.03-3.89,1.73-6.13,2.11l.05-18.49c2.25-.38,4.37-1.08,6.13-2.11"/>
            <path class="cls-54" d="M441.87,260.57l-.05,18.49c-.42.07-.85.13-1.28.18l.05-18.49c.43-.05.85-.11,1.28-.18"/>
            <path class="cls-37" d="M440.6,260.75l-.05,18.49c-.34.04-.68.07-1.02.09l.05-18.49c.34-.02.68-.06,1.02-.09"/>
            <path class="cls-10" d="M439.57,260.85l-.05,18.49c-.3.02-.6.04-.9.05l.05-18.49c.3-.01.6-.03.9-.05"/>
            <path class="cls-53" d="M438.68,260.89l-.05,18.49c-.27,0-.54.01-.82.01l.05-18.49c.27,0,.54,0,.82-.01"/>
            <path class="cls-39" d="M437.86,260.91l-.05,18.49c-.25,0-.49,0-.74,0l.05-18.49c.25,0,.49.01.74,0"/>
            <path class="cls-5" d="M437.12,260.9l-.05,18.49c-.24,0-.47-.02-.71-.03l.05-18.49c.24.01.47.02.71.03"/>
            <path class="cls-7" d="M436.41,260.87l-.05,18.49c-.22-.01-.45-.03-.67-.05l.05-18.49c.22.02.45.03.67.05"/>
            <path class="cls-21" d="M435.74,260.82l-.05,18.49c-.21-.02-.42-.04-.63-.06l.05-18.49c.21.02.42.04.63.06"/>
            <path class="cls-18" d="M435.11,260.76l-.05,18.49c-.21-.02-.41-.05-.62-.08l.05-18.49c.21.03.41.05.62.08"/>
            <path class="cls-56" d="M434.49,260.68l-.05,18.49c-.19-.03-.39-.06-.58-.09l.05-18.49c.19.03.39.06.58.09"/>
            <path class="cls-55" d="M433.91,260.6l-.05,18.49c-.19-.03-.38-.06-.57-.1l.05-18.49c.19.04.38.07.57.1"/>
            <path class="cls-47" d="M433.34,260.5l-.05,18.49c-.19-.03-.37-.07-.55-.11l.05-18.49c.18.04.37.08.55.11"/>
            <path class="cls-49" d="M432.78,260.39l-.05,18.49c-.18-.04-.37-.08-.55-.13l.05-18.49c.18.04.36.09.55.13"/>
            <path class="cls-45" d="M432.23,260.26l-.05,18.49c-.18-.04-.37-.09-.55-.14l.05-18.49c.18.05.36.1.55.14"/>
            <path class="cls-38" d="M431.69,260.12l-.05,18.49c-.19-.05-.37-.1-.56-.16l.05-18.49c.18.06.37.11.56.16"/>
            <path class="cls-2" d="M431.13,259.96l-.05,18.49c-.19-.06-.38-.12-.57-.18l.05-18.49c.19.06.38.12.57.18"/>
            <path class="cls-46" d="M430.56,259.78l-.05,18.49c-.21-.07-.42-.14-.62-.22l.05-18.49c.2.08.41.15.62.22"/>
            <path class="cls-36" d="M429.94,259.56l-.05,18.49c-.22-.08-.44-.17-.66-.26l.05-18.49c.22.09.44.18.66.26"/>
            <path class="cls-14" d="M429.28,259.29l-.05,18.49c-.26-.11-.51-.23-.76-.35l.05-18.49c.25.12.5.24.76.35"/>
            <path class="cls-12" d="M428.52,258.95l-.05,18.49c-.31-.15-.61-.31-.91-.48l.05-18.49c.29.17.6.33.91.48"/>
          </g>
        </g>
      </g>
    </g>
    <path class="cls-11" d="M475.97,202.75c5.01,2.89,5.04,7.59.07,10.48l-29.36,17.06c-4.98,2.89-13.08,2.89-18.09,0l-29.55-17.06c-5.01-2.89-5.04-7.58-.06-10.48l29.36-17.06c4.98-2.89,13.07-2.89,18.09,0l29.55,17.06Z"/>
  </g>
  <g>
    <g class="cls-17">
      <g class="cls-17">
        <g class="cls-29">
          <g class="cls-17">
            <path class="cls-52" d="M741.84,208.62l-.05,18.49c0,2.12-1.4,4.25-4.19,5.86l.05-18.49c2.79-1.62,4.18-3.74,4.19-5.86"/>
          </g>
        </g>
      </g>
      <g class="cls-17">
        <g class="cls-28">
          <g class="cls-17">
            <path class="cls-12" d="M565.4,214.48l-.05,18.49s-.02,0-.02-.01l.05-18.49s.02,0,.02.01"/>
            <path class="cls-23" d="M565.38,214.47l-.05,18.49c-.46-.27-.88-.54-1.26-.83l.05-18.49c.38.29.8.57,1.26.83"/>
            <path class="cls-43" d="M564.12,213.64l-.05,18.49c-.88-.66-1.56-1.39-2.05-2.14l.05-18.49c.49.76,1.17,1.48,2.05,2.14"/>
            <path class="cls-23" d="M562.07,211.49l-.05,18.49c-.2-.31-.37-.62-.5-.94l.05-18.49c.13.32.3.63.5.94"/>
            <path class="cls-12" d="M561.57,210.55l-.05,18.49c-.09-.22-.17-.44-.23-.66l.05-18.49c.06.22.14.44.23.66"/>
            <path class="cls-14" d="M561.34,209.89l-.05,18.49c-.05-.18-.09-.36-.12-.55l.05-18.49c.03.18.07.36.12.55"/>
            <path class="cls-36" d="M561.21,209.34l-.05,18.49c-.03-.16-.05-.33-.06-.49l.05-18.49c.01.16.03.33.06.49"/>
            <path class="cls-46" d="M561.16,208.85l-.05,18.49c0-.11,0-.21,0-.32l.05-18.49c0,.11,0,.21,0,.32"/>
          </g>
        </g>
      </g>
      <polygon class="cls-16" points="737.65 214.48 737.6 232.97 661.92 276.95 661.97 258.46 737.65 214.48"/>
      <polygon class="cls-8" points="641.58 258.46 641.53 276.95 565.35 232.97 565.4 214.48 641.58 258.46"/>
      <path class="cls-35" d="M737.59,202.67c5.65,3.26,5.68,8.55.07,11.81l-75.68,43.98c-5.61,3.26-14.75,3.26-20.39,0l-76.18-43.98c-5.65-3.26-5.68-8.55-.07-11.81l75.68-43.98c5.61-3.26,14.75-3.26,20.39,0l76.18,43.98Z"/>
      <g class="cls-17">
        <g class="cls-31">
          <g class="cls-17">
            <path class="cls-52" d="M661.97,258.46l-.05,18.49c-1.77,1.03-3.89,1.73-6.13,2.11l.05-18.49c2.25-.38,4.37-1.08,6.13-2.11"/>
            <path class="cls-54" d="M655.84,260.57l-.05,18.49c-.42.07-.85.13-1.28.18l.05-18.49c.43-.05.85-.11,1.28-.18"/>
            <path class="cls-37" d="M654.56,260.75l-.05,18.49c-.34.04-.68.07-1.02.09l.05-18.49c.34-.02.68-.06,1.02-.09"/>
            <path class="cls-10" d="M653.54,260.85l-.05,18.49c-.3.02-.6.04-.9.05l.05-18.49c.3-.01.6-.03.9-.05"/>
            <path class="cls-53" d="M652.64,260.89l-.05,18.49c-.27,0-.54.01-.82.01l.05-18.49c.27,0,.54,0,.82-.01"/>
            <path class="cls-39" d="M651.82,260.91l-.05,18.49c-.25,0-.49,0-.74,0l.05-18.49c.25,0,.49.01.74,0"/>
            <path class="cls-5" d="M651.09,260.9l-.05,18.49c-.24,0-.47-.02-.71-.03l.05-18.49c.24.01.47.02.71.03"/>
            <path class="cls-7" d="M650.38,260.87l-.05,18.49c-.22-.01-.45-.03-.67-.05l.05-18.49c.22.02.45.03.67.05"/>
            <path class="cls-21" d="M649.71,260.82l-.05,18.49c-.21-.02-.42-.04-.63-.06l.05-18.49c.21.02.42.04.63.06"/>
            <path class="cls-18" d="M649.07,260.76l-.05,18.49c-.21-.02-.41-.05-.62-.08l.05-18.49c.21.03.41.05.62.08"/>
            <path class="cls-56" d="M648.46,260.68l-.05,18.49c-.19-.03-.39-.06-.58-.09l.05-18.49c.19.03.39.06.58.09"/>
            <path class="cls-55" d="M647.88,260.6l-.05,18.49c-.19-.03-.38-.06-.57-.1l.05-18.49c.19.04.38.07.57.1"/>
            <path class="cls-47" d="M647.3,260.5l-.05,18.49c-.19-.03-.37-.07-.55-.11l.05-18.49c.18.04.37.08.55.11"/>
            <path class="cls-49" d="M646.75,260.39l-.05,18.49c-.18-.04-.37-.08-.55-.13l.05-18.49c.18.04.36.09.55.13"/>
            <path class="cls-45" d="M646.2,260.26l-.05,18.49c-.18-.04-.37-.09-.55-.14l.05-18.49c.18.05.36.1.55.14"/>
            <path class="cls-38" d="M645.65,260.12l-.05,18.49c-.19-.05-.37-.1-.56-.16l.05-18.49c.18.06.37.11.56.16"/>
            <path class="cls-2" d="M645.1,259.96l-.05,18.49c-.19-.06-.38-.12-.57-.18l.05-18.49c.19.06.38.12.57.18"/>
            <path class="cls-46" d="M644.53,259.78l-.05,18.49c-.21-.07-.42-.14-.62-.22l.05-18.49c.2.08.41.15.62.22"/>
            <path class="cls-36" d="M643.91,259.56l-.05,18.49c-.22-.08-.44-.17-.66-.26l.05-18.49c.22.09.44.18.66.26"/>
            <path class="cls-14" d="M643.25,259.29l-.05,18.49c-.26-.11-.51-.23-.76-.35l.05-18.49c.25.12.5.24.76.35"/>
            <path class="cls-12" d="M642.49,258.95l-.05,18.49c-.31-.15-.61-.31-.91-.48l.05-18.49c.29.17.6.33.91.48"/>
          </g>
        </g>
      </g>
    </g>
    <path class="cls-58" d="M689.94,202.75c5.01,2.89,5.04,7.58.06,10.48l-29.36,17.06c-4.98,2.89-13.07,2.89-18.09,0l-29.55-17.06c-5.01-2.89-5.04-7.58-.06-10.48l29.36-17.06c4.98-2.89,13.07-2.89,18.09,0l29.55,17.06Z"/>
  </g>
  <g>
    <g class="cls-17">
      <g class="cls-17">
        <g class="cls-30">
          <g class="cls-17">
            <path class="cls-52" d="M635.49,270.05l-.05,18.49c0,2.12-1.4,4.25-4.19,5.86l.05-18.49c2.79-1.62,4.18-3.74,4.19-5.86"/>
          </g>
        </g>
      </g>
      <g class="cls-17">
        <g class="cls-20">
          <g class="cls-17">
            <path class="cls-12" d="M459.06,275.91l-.05,18.49s-.02,0-.02-.01l.05-18.49s.02,0,.02.01"/>
            <path class="cls-23" d="M459.03,275.9l-.05,18.49c-.46-.27-.88-.54-1.26-.83l.05-18.49c.38.29.8.57,1.26.83"/>
            <path class="cls-43" d="M457.77,275.07l-.05,18.49c-.88-.66-1.56-1.39-2.05-2.14l.05-18.49c.49.76,1.17,1.48,2.05,2.14"/>
            <path class="cls-23" d="M455.72,272.92l-.05,18.49c-.2-.31-.37-.62-.5-.94l.05-18.49c.13.32.3.63.5.94"/>
            <path class="cls-12" d="M455.22,271.98l-.05,18.49c-.09-.22-.17-.44-.23-.66l.05-18.49c.06.22.14.44.23.66"/>
            <path class="cls-14" d="M454.99,271.32l-.05,18.49c-.05-.18-.09-.36-.12-.55l.05-18.49c.03.18.07.36.12.55"/>
            <path class="cls-36" d="M454.87,270.78l-.05,18.49c-.03-.16-.05-.33-.06-.49l.05-18.49c.01.16.03.33.06.49"/>
            <path class="cls-46" d="M454.81,270.29l-.05,18.49c0-.11,0-.21,0-.32l.05-18.49c0,.11,0,.21,0,.32"/>
          </g>
        </g>
      </g>
      <polygon class="cls-16" points="631.3 275.91 631.25 294.4 555.57 338.38 555.62 319.89 631.3 275.91"/>
      <polygon class="cls-8" points="535.23 319.89 535.18 338.38 459 294.4 459.06 275.91 535.23 319.89"/>
      <path class="cls-35" d="M631.24,264.1c5.65,3.26,5.68,8.55.07,11.81l-75.68,43.98c-5.61,3.26-14.75,3.26-20.39,0l-76.18-43.98c-5.65-3.26-5.68-8.55-.07-11.81l75.68-43.98c5.61-3.26,14.75-3.26,20.39,0l76.18,43.98Z"/>
      <g class="cls-17">
        <g class="cls-19">
          <g class="cls-17">
            <path class="cls-52" d="M555.62,319.89l-.05,18.49c-1.77,1.03-3.89,1.73-6.13,2.11l.05-18.49c2.25-.38,4.37-1.08,6.13-2.11"/>
            <path class="cls-54" d="M549.49,322.01l-.05,18.49c-.42.07-.85.13-1.28.18l.05-18.49c.43-.05.85-.11,1.28-.18"/>
            <path class="cls-37" d="M548.22,322.18l-.05,18.49c-.34.04-.68.07-1.02.09l.05-18.49c.34-.02.68-.06,1.02-.09"/>
            <path class="cls-10" d="M547.19,322.28l-.05,18.49c-.3.02-.6.04-.9.05l.05-18.49c.3-.01.6-.03.9-.05"/>
            <path class="cls-53" d="M546.29,322.33l-.05,18.49c-.27,0-.54.01-.82.01l.05-18.49c.27,0,.54,0,.82-.01"/>
            <path class="cls-39" d="M545.48,322.34l-.05,18.49c-.25,0-.49,0-.74,0l.05-18.49c.25,0,.49.01.74,0"/>
            <path class="cls-5" d="M544.74,322.33l-.05,18.49c-.24,0-.47-.02-.71-.03l.05-18.49c.24.01.47.02.71.03"/>
            <path class="cls-7" d="M544.03,322.3l-.05,18.49c-.22-.01-.45-.03-.67-.05l.05-18.49c.22.02.45.03.67.05"/>
            <path class="cls-21" d="M543.36,322.25l-.05,18.49c-.21-.02-.42-.04-.63-.06l.05-18.49c.21.02.42.04.63.06"/>
            <path class="cls-18" d="M542.73,322.19l-.05,18.49c-.21-.02-.41-.05-.62-.08l.05-18.49c.21.03.41.05.62.08"/>
            <path class="cls-56" d="M542.11,322.12l-.05,18.49c-.19-.03-.39-.06-.58-.09l.05-18.49c.19.03.39.06.58.09"/>
            <path class="cls-55" d="M541.53,322.03l-.05,18.49c-.19-.03-.38-.06-.57-.1l.05-18.49c.19.04.38.07.57.1"/>
            <path class="cls-47" d="M540.95,321.93l-.05,18.49c-.19-.03-.37-.07-.55-.11l.05-18.49c.18.04.37.08.55.11"/>
            <path class="cls-49" d="M540.4,321.82l-.05,18.49c-.18-.04-.37-.08-.55-.13l.05-18.49c.18.04.36.09.55.13"/>
            <path class="cls-45" d="M539.85,321.69l-.05,18.49c-.18-.04-.37-.09-.55-.14l.05-18.49c.18.05.36.1.55.14"/>
            <path class="cls-38" d="M539.31,321.55l-.05,18.49c-.19-.05-.37-.1-.56-.16l.05-18.49c.18.06.37.11.56.16"/>
            <path class="cls-2" d="M538.75,321.39l-.05,18.49c-.19-.06-.38-.12-.57-.18l.05-18.49c.19.06.38.12.57.18"/>
            <path class="cls-46" d="M538.18,321.21l-.05,18.49c-.21-.07-.42-.14-.62-.22l.05-18.49c.2.08.41.15.62.22"/>
            <path class="cls-36" d="M537.56,320.99l-.05,18.49c-.22-.08-.44-.17-.66-.26l.05-18.49c.22.09.44.18.66.26"/>
            <path class="cls-14" d="M536.9,320.72l-.05,18.49c-.26-.11-.51-.23-.76-.35l.05-18.49c.25.12.5.24.76.35"/>
            <path class="cls-12" d="M536.14,320.38l-.05,18.49c-.31-.15-.61-.31-.91-.48l.05-18.49c.29.17.6.33.91.48"/>
          </g>
        </g>
      </g>
    </g>
    <path class="cls-57" d="M583.59,262.03c5.01,2.89,5.04,7.58.06,10.48l-29.36,17.06c-4.98,2.89-13.07,2.89-18.09,0l-29.55-17.06c-5.01-2.89-5.04-7.58-.06-10.48l29.36-17.06c4.98-2.89,13.08-2.89,18.09,0l29.55,17.06Z"/>
  </g>
</svg>