<?xml version="1.0" encoding="UTF-8"?>
<svg id="Layer_1" data-name="Layer 1" xmlns="http://www.w3.org/2000/svg" viewBox="0 0 400 400">
  <defs>
    <style>
      .cls-1 {
        fill: #6a6d75;
      }
    </style>
  </defs>
  <path class="cls-1" d="M200.06,147.51h-71.81v105.21c0,18.79,8.77,25.05,27.56,25.05h37.94c2.51-9.1,8.96-17.64,18.83-30.06l81.83-100.2h-94.35Z"/>
  <path class="cls-1" d="M200,3.66C91.56,3.66,3.66,91.56,3.66,200s87.9,196.34,196.34,196.34,196.34-87.9,196.34-196.34S308.44,3.66,200,3.66ZM336.99,312.85h-186.2c-37.57,0-59.29-25.05-59.29-64.71V62.34h36.74v50.1h168.66c25.05,0,38.41,10.44,38.41,26.72,0,8.77-1.67,16.29-6.26,21.71l-95.61,116.9h103.54v35.07Z"/>
</svg>